<svg width="171" height="58" viewBox="0 0 171 58" fill="none" xmlns="http://www.w3.org/2000/svg">
<path d="M23.4911 0L26.7465 10.0193L37.2814 10.0193L28.7585 16.2115L32.014 26.2307L23.4911 20.0385L14.9682 26.2307L18.2236 16.2115L9.70075 10.0193L20.2356 10.0193L23.4911 0Z" fill="#6D1111"/>
<path d="M54.0938 24.25H50.4688C50.3854 24.25 50.3438 24.1979 50.3438 24.0938L50.4063 2.14062C50.4063 2.03646 50.4479 1.98438 50.5313 1.98438H54.125C54.2083 1.98438 54.25 2.03646 54.25 2.14062V9.71875L59.2656 2.10938C59.349 2.02604 59.4271 1.98438 59.5 1.98438H63.1719C63.2656 1.98438 63.2865 2.02604 63.2344 2.10938L57.7031 10.9375L63.9063 24.125C63.9583 24.2083 63.9063 24.25 63.75 24.25H59.8438C59.7396 24.25 59.6771 24.2083 59.6563 24.125L55.3281 14.7188L54.2188 16.4688V24.0938C54.2188 24.1979 54.1771 24.25 54.0938 24.25ZM70.6094 24.5625C69.474 24.5625 68.4271 24.2708 67.4688 23.6875C66.5208 23.1042 65.7552 22.3281 65.1719 21.3594C64.599 20.3802 64.3125 19.3073 64.3125 18.1406L64.3438 8C64.3438 6.8125 64.6302 5.74479 65.2031 4.79688C65.7656 3.83854 66.526 3.07292 67.4844 2.5C68.4427 1.91667 69.4844 1.625 70.6094 1.625C71.776 1.625 72.8229 1.91146 73.75 2.48438C74.6875 3.05729 75.4375 3.82812 76 4.79688C76.5729 5.75521 76.8594 6.82292 76.8594 8L76.8906 18.1406C76.8906 19.3073 76.6094 20.375 76.0469 21.3438C75.474 22.3229 74.7135 23.1042 73.7656 23.6875C72.8177 24.2708 71.7656 24.5625 70.6094 24.5625ZM70.6094 20.7031C71.2552 20.7031 71.8177 20.4427 72.2969 19.9219C72.776 19.3906 73.0156 18.7969 73.0156 18.1406L72.9844 8C72.9844 7.29167 72.7604 6.69271 72.3125 6.20312C71.8646 5.71354 71.2969 5.46875 70.6094 5.46875C69.9531 5.46875 69.3906 5.70833 68.9219 6.1875C68.4531 6.66667 68.2188 7.27083 68.2188 8V18.1406C68.2188 18.8385 68.4531 19.4427 68.9219 19.9531C69.3906 20.4531 69.9531 20.7031 70.6094 20.7031ZM91.375 24.25H87.75C87.6667 24.25 87.625 24.1979 87.625 24.0938L87.6875 2.10938C87.6875 2.02604 87.7292 1.98438 87.8125 1.98438H91.7188C91.8021 1.98438 91.875 2.02604 91.9375 2.10938L94.8594 6.32812L97.7656 2.10938C97.8281 2.02604 97.9063 1.98438 98 1.98438H101.922C102.016 1.98438 102.063 2.02604 102.063 2.10938L102.125 24.0938C102.125 24.1979 102.083 24.25 102 24.25H98.375C98.2917 24.25 98.25 24.1979 98.25 24.0938L98.2188 7.76562L94.8594 12.6406L91.5313 7.76562L91.5 24.0938C91.5 24.1979 91.4583 24.25 91.375 24.25ZM110.703 24.5625C109.578 24.5625 108.536 24.2708 107.578 23.6875C106.62 23.1042 105.854 22.3229 105.281 21.3438C104.719 20.3542 104.438 19.276 104.438 18.1094L104.5 2.10938C104.5 2.02604 104.542 1.98438 104.625 1.98438H108.219C108.302 1.98438 108.344 2.02604 108.344 2.10938V18.1094C108.344 18.8281 108.573 19.4427 109.031 19.9531C109.49 20.4531 110.047 20.7031 110.703 20.7031C111.391 20.7031 111.964 20.4531 112.422 19.9531C112.88 19.4427 113.109 18.8281 113.109 18.1094V2.10938C113.109 2.02604 113.151 1.98438 113.234 1.98438H116.828C116.911 1.98438 116.953 2.02604 116.953 2.10938L117.016 18.1094C117.016 19.2865 116.734 20.3698 116.172 21.3594C115.599 22.3385 114.839 23.1198 113.891 23.7031C112.943 24.276 111.88 24.5625 110.703 24.5625ZM124.969 24.5625C123.833 24.5625 122.786 24.2708 121.828 23.6875C120.88 23.1042 120.12 22.3281 119.547 21.3594C118.984 20.3802 118.703 19.3073 118.703 18.1406V16.6719C118.703 16.5573 118.755 16.5 118.859 16.5H122.453C122.536 16.5 122.578 16.5573 122.578 16.6719V18.1406C122.578 18.8385 122.812 19.4427 123.281 19.9531C123.75 20.4531 124.312 20.7031 124.969 20.7031C125.635 20.7031 126.203 20.4479 126.672 19.9375C127.141 19.4167 127.375 18.8177 127.375 18.1406C127.375 17.3594 126.865 16.6771 125.844 16.0938C125.677 15.9896 125.458 15.8646 125.188 15.7188C124.927 15.5625 124.615 15.3854 124.25 15.1875C123.885 14.9896 123.531 14.7969 123.188 14.6094C122.844 14.4115 122.51 14.224 122.188 14.0469C121.021 13.3594 120.151 12.5 119.578 11.4688C119.016 10.4271 118.734 9.26042 118.734 7.96875C118.734 6.78125 119.026 5.70833 119.609 4.75C120.193 3.80208 120.953 3.05208 121.891 2.5C122.839 1.9375 123.865 1.65625 124.969 1.65625C126.104 1.65625 127.146 1.9375 128.094 2.5C129.042 3.07292 129.797 3.83333 130.359 4.78125C130.932 5.72917 131.219 6.79167 131.219 7.96875V10.5938C131.219 10.6771 131.177 10.7188 131.094 10.7188H127.5C127.417 10.7188 127.375 10.6771 127.375 10.5938L127.344 7.96875C127.344 7.21875 127.109 6.60938 126.641 6.14062C126.172 5.67188 125.615 5.4375 124.969 5.4375C124.312 5.4375 123.75 5.6875 123.281 6.1875C122.812 6.6875 122.578 7.28125 122.578 7.96875C122.578 8.66667 122.724 9.25 123.016 9.71875C123.318 10.1875 123.865 10.6354 124.656 11.0625C124.74 11.1042 124.932 11.2083 125.234 11.375C125.536 11.5417 125.87 11.7292 126.234 11.9375C126.609 12.1354 126.948 12.3177 127.25 12.4844C127.552 12.6406 127.734 12.7344 127.797 12.7656C128.859 13.3594 129.698 14.0885 130.312 14.9531C130.938 15.8177 131.25 16.8802 131.25 18.1406C131.25 19.3594 130.969 20.4531 130.406 21.4219C129.833 22.3906 129.073 23.1562 128.125 23.7188C127.177 24.2812 126.125 24.5625 124.969 24.5625ZM137.25 24.25H133.625C133.521 24.25 133.469 24.1979 133.469 24.0938L133.5 2.10938C133.5 2.02604 133.542 1.98438 133.625 1.98438H137.219C137.302 1.98438 137.344 2.02604 137.344 2.10938L137.375 24.0938C137.375 24.1979 137.333 24.25 137.25 24.25ZM146.078 24.5625C144.922 24.5625 143.865 24.2708 142.906 23.6875C141.958 23.1042 141.203 22.3229 140.641 21.3438C140.089 20.3542 139.812 19.2552 139.812 18.0469L139.844 8.0625C139.844 6.875 140.115 5.80208 140.656 4.84375C141.198 3.875 141.943 3.09896 142.891 2.51562C143.849 1.92188 144.911 1.625 146.078 1.625C147.266 1.625 148.323 1.91146 149.25 2.48438C150.188 3.05729 150.932 3.83333 151.484 4.8125C152.047 5.78125 152.328 6.86458 152.328 8.0625V9.53125C152.328 9.61458 152.286 9.65625 152.203 9.65625H148.609C148.526 9.65625 148.484 9.61458 148.484 9.53125V8.0625C148.484 7.35417 148.255 6.74479 147.797 6.23438C147.339 5.72396 146.766 5.46875 146.078 5.46875C145.318 5.46875 144.734 5.72917 144.328 6.25C143.922 6.77083 143.719 7.375 143.719 8.0625V18.0469C143.719 18.8281 143.948 19.4688 144.406 19.9688C144.865 20.4583 145.422 20.7031 146.078 20.7031C146.766 20.7031 147.339 20.4323 147.797 19.8906C148.255 19.3385 148.484 18.724 148.484 18.0469V16.5625C148.484 16.4792 148.526 16.4375 148.609 16.4375H152.234C152.318 16.4375 152.359 16.4792 152.359 16.5625V18.0469C152.359 19.2448 152.078 20.3385 151.516 21.3281C150.943 22.3073 150.188 23.0938 149.25 23.6875C148.312 24.2708 147.255 24.5625 146.078 24.5625ZM158.438 24.25H154.812C154.729 24.25 154.688 24.2083 154.688 24.125V20.5C154.688 20.4167 154.729 20.375 154.812 20.375H158.438C158.521 20.375 158.562 20.4167 158.562 20.5V24.125C158.562 24.2083 158.521 24.25 158.438 24.25Z" fill="#060404"/>
<path d="M8.43164 47.6035V46.25C8.58659 46.3867 8.77116 46.5098 8.98535 46.6191C9.2041 46.7285 9.43197 46.8219 9.66895 46.8994C9.91048 46.9723 10.152 47.0293 10.3936 47.0703C10.6351 47.1113 10.8584 47.1318 11.0635 47.1318C11.7699 47.1318 12.2962 47.002 12.6426 46.7422C12.9935 46.4779 13.1689 46.0996 13.1689 45.6074C13.1689 45.3431 13.1097 45.113 12.9912 44.917C12.8773 44.721 12.7178 44.5433 12.5127 44.3838C12.3076 44.2197 12.0638 44.0648 11.7812 43.9189C11.5033 43.7686 11.2025 43.6113 10.8789 43.4473C10.5371 43.2741 10.2181 43.0986 9.92188 42.9209C9.62565 42.7432 9.36816 42.5472 9.14941 42.333C8.93066 42.1188 8.75749 41.8773 8.62988 41.6084C8.50684 41.335 8.44531 41.016 8.44531 40.6514C8.44531 40.2048 8.54329 39.8174 8.73926 39.4893C8.93522 39.1566 9.19271 38.8831 9.51172 38.6689C9.83073 38.4548 10.193 38.2952 10.5986 38.1904C11.0088 38.0856 11.4258 38.0332 11.8496 38.0332C12.8158 38.0332 13.5199 38.1494 13.9619 38.3818V39.6738C13.3831 39.2728 12.6403 39.0723 11.7334 39.0723C11.4827 39.0723 11.2321 39.0996 10.9814 39.1543C10.7308 39.2044 10.5075 39.2887 10.3115 39.4072C10.1156 39.5257 9.95605 39.6784 9.83301 39.8652C9.70996 40.0521 9.64844 40.2799 9.64844 40.5488C9.64844 40.7995 9.69401 41.016 9.78516 41.1982C9.88086 41.3805 10.0199 41.5469 10.2021 41.6973C10.3844 41.8477 10.6055 41.9935 10.8652 42.1348C11.1296 42.276 11.4326 42.431 11.7744 42.5996C12.1253 42.7728 12.458 42.9551 12.7725 43.1465C13.0869 43.3379 13.3626 43.5498 13.5996 43.7822C13.8366 44.0146 14.0234 44.2721 14.1602 44.5547C14.3014 44.8372 14.3721 45.1608 14.3721 45.5254C14.3721 46.0085 14.2764 46.4186 14.085 46.7559C13.8981 47.0885 13.6429 47.3597 13.3193 47.5693C13.0003 47.779 12.6312 47.9294 12.2119 48.0205C11.7926 48.1162 11.3506 48.1641 10.8857 48.1641C10.7308 48.1641 10.5394 48.1504 10.3115 48.123C10.0837 48.1003 9.85124 48.0638 9.61426 48.0137C9.37728 47.9681 9.15169 47.9111 8.9375 47.8428C8.72786 47.7699 8.55924 47.6901 8.43164 47.6035ZM19.1025 48.1641C18.068 48.1641 17.2409 47.8382 16.6211 47.1865C16.0059 46.5303 15.6982 45.6621 15.6982 44.582C15.6982 43.4062 16.0195 42.488 16.6621 41.8271C17.3047 41.1663 18.1729 40.8359 19.2666 40.8359C20.3102 40.8359 21.1237 41.1572 21.707 41.7998C22.2949 42.4424 22.5889 43.3333 22.5889 44.4727C22.5889 45.5892 22.2721 46.4847 21.6387 47.1592C21.0098 47.8291 20.1644 48.1641 19.1025 48.1641ZM19.1846 41.7793C18.4645 41.7793 17.8949 42.0254 17.4756 42.5176C17.0563 43.0052 16.8467 43.6797 16.8467 44.541C16.8467 45.3704 17.0586 46.0244 17.4824 46.5029C17.9062 46.9814 18.4736 47.2207 19.1846 47.2207C19.9092 47.2207 20.4652 46.986 20.8525 46.5166C21.2445 46.0472 21.4404 45.3796 21.4404 44.5137C21.4404 43.6387 21.2445 42.9642 20.8525 42.4902C20.4652 42.0163 19.9092 41.7793 19.1846 41.7793ZM30.04 48H28.9189V46.8926H28.8916C28.4268 47.7402 27.7067 48.1641 26.7314 48.1641C25.0635 48.1641 24.2295 47.1706 24.2295 45.1836V41H25.3438V45.0059C25.3438 46.4824 25.9089 47.2207 27.0391 47.2207C27.5859 47.2207 28.0348 47.0202 28.3857 46.6191C28.7412 46.2135 28.9189 45.6849 28.9189 45.0332V41H30.04V48ZM38.1201 48H36.999V44.0078C36.999 42.5221 36.4567 41.7793 35.3721 41.7793C34.8115 41.7793 34.3467 41.9912 33.9775 42.415C33.613 42.8343 33.4307 43.3652 33.4307 44.0078V48H32.3096V41H33.4307V42.1621H33.458C33.9867 41.278 34.7523 40.8359 35.7549 40.8359C36.5205 40.8359 37.1061 41.0843 37.5117 41.5811C37.9173 42.0732 38.1201 42.7865 38.1201 43.7207V48ZM46.2139 48H45.0928V46.8105H45.0654C44.5459 47.7129 43.7438 48.1641 42.6592 48.1641C41.7796 48.1641 41.0755 47.8519 40.5469 47.2275C40.0228 46.5986 39.7607 45.7441 39.7607 44.6641C39.7607 43.5065 40.0524 42.5791 40.6357 41.8818C41.2191 41.1846 41.9961 40.8359 42.9668 40.8359C43.9284 40.8359 44.6279 41.2142 45.0654 41.9707H45.0928V37.6367H46.2139V48ZM45.0928 44.835V43.8027C45.0928 43.2376 44.9059 42.7591 44.5322 42.3672C44.1585 41.9753 43.6846 41.7793 43.1104 41.7793C42.4268 41.7793 41.889 42.0299 41.4971 42.5312C41.1051 43.0326 40.9092 43.7253 40.9092 44.6094C40.9092 45.416 41.096 46.054 41.4697 46.5234C41.848 46.9883 42.3538 47.2207 42.9873 47.2207C43.6117 47.2207 44.1175 46.9951 44.5049 46.5439C44.8968 46.0928 45.0928 45.5231 45.0928 44.835ZM51.7305 47.9316C51.4661 48.0775 51.1175 48.1504 50.6846 48.1504C49.4587 48.1504 48.8457 47.4668 48.8457 46.0996V41.957H47.6426V41H48.8457V39.291L49.9668 38.9287V41H51.7305V41.957H49.9668V45.9014C49.9668 46.3708 50.0465 46.7057 50.2061 46.9062C50.3656 47.1068 50.6299 47.207 50.999 47.207C51.2816 47.207 51.5254 47.1296 51.7305 46.9746V47.9316ZM56.8779 42.1348C56.682 41.9844 56.3994 41.9092 56.0303 41.9092C55.5518 41.9092 55.1507 42.1348 54.8271 42.5859C54.5081 43.0371 54.3486 43.6523 54.3486 44.4316V48H53.2275V41H54.3486V42.4424H54.376C54.5355 41.9502 54.7793 41.5674 55.1074 41.2939C55.4355 41.016 55.8024 40.877 56.208 40.877C56.4997 40.877 56.723 40.9089 56.8779 40.9727V42.1348ZM63.1055 48H61.9844V46.9062H61.957C61.4694 47.7448 60.7516 48.1641 59.8037 48.1641C59.1064 48.1641 58.5596 47.9795 58.1631 47.6104C57.7712 47.2412 57.5752 46.7513 57.5752 46.1406C57.5752 44.8327 58.3454 44.0716 59.8857 43.8574L61.9844 43.5635C61.9844 42.374 61.5036 41.7793 60.542 41.7793C59.6989 41.7793 58.9378 42.0664 58.2588 42.6406V41.4922C58.9469 41.0547 59.7399 40.8359 60.6377 40.8359C62.2829 40.8359 63.1055 41.7064 63.1055 43.4473V48ZM61.9844 44.459L60.2959 44.6914C59.7764 44.7643 59.3844 44.8942 59.1201 45.0811C58.8558 45.2633 58.7236 45.5892 58.7236 46.0586C58.7236 46.4004 58.8444 46.6807 59.0859 46.8994C59.332 47.1136 59.6579 47.2207 60.0635 47.2207C60.6195 47.2207 61.0775 47.027 61.4375 46.6396C61.8021 46.2477 61.9844 45.7533 61.9844 45.1562V44.459ZM69.9893 47.6787C69.4515 48.0023 68.8135 48.1641 68.0752 48.1641C67.0771 48.1641 66.2705 47.8405 65.6553 47.1934C65.0446 46.5417 64.7393 45.6986 64.7393 44.6641C64.7393 43.5111 65.0697 42.5859 65.7305 41.8887C66.3913 41.1868 67.2731 40.8359 68.376 40.8359C68.9912 40.8359 69.5335 40.9499 70.0029 41.1777V42.3262C69.4834 41.9616 68.9274 41.7793 68.335 41.7793C67.6195 41.7793 67.0316 42.0368 66.5713 42.5518C66.1156 43.0622 65.8877 43.7344 65.8877 44.5684C65.8877 45.3887 66.1019 46.0358 66.5303 46.5098C66.9632 46.9837 67.542 47.2207 68.2666 47.2207C68.8773 47.2207 69.4515 47.0179 69.9893 46.6123V47.6787ZM77.4951 48H75.9229L72.833 44.6367H72.8057V48H71.6846V37.6367H72.8057V44.2061H72.833L75.7725 41H77.2422L73.9951 44.377L77.4951 48ZM78.2197 47.7471V46.5439C78.8304 46.9951 79.5026 47.2207 80.2363 47.2207C81.2207 47.2207 81.7129 46.8926 81.7129 46.2363C81.7129 46.0495 81.6696 45.8923 81.583 45.7646C81.501 45.6325 81.387 45.5163 81.2412 45.416C81.0999 45.3158 80.9313 45.2269 80.7354 45.1494C80.5439 45.0674 80.3366 44.9831 80.1133 44.8965C79.8034 44.7734 79.5299 44.6504 79.293 44.5273C79.0605 44.3997 78.8646 44.2585 78.7051 44.1035C78.5501 43.944 78.4316 43.764 78.3496 43.5635C78.2721 43.363 78.2334 43.1283 78.2334 42.8594C78.2334 42.5312 78.3086 42.2419 78.459 41.9912C78.6094 41.736 78.8099 41.5241 79.0605 41.3555C79.3112 41.1823 79.596 41.0524 79.915 40.9658C80.2386 40.8792 80.5713 40.8359 80.9131 40.8359C81.5192 40.8359 82.0615 40.9408 82.54 41.1504V42.2852C82.0251 41.9479 81.4326 41.7793 80.7627 41.7793C80.5531 41.7793 80.3639 41.8044 80.1953 41.8545C80.0267 41.9001 79.8809 41.9661 79.7578 42.0527C79.6393 42.1393 79.5459 42.2441 79.4775 42.3672C79.4137 42.4857 79.3818 42.6178 79.3818 42.7637C79.3818 42.946 79.4137 43.0986 79.4775 43.2217C79.5459 43.3447 79.6439 43.4541 79.7715 43.5498C79.8991 43.6455 80.054 43.7321 80.2363 43.8096C80.4186 43.887 80.626 43.9714 80.8584 44.0625C81.1683 44.181 81.4463 44.304 81.6924 44.4316C81.9385 44.5547 82.1481 44.696 82.3213 44.8555C82.4945 45.0104 82.6266 45.1904 82.7178 45.3955C82.8135 45.6006 82.8613 45.8444 82.8613 46.127C82.8613 46.4733 82.7839 46.7741 82.6289 47.0293C82.4785 47.2845 82.2757 47.4964 82.0205 47.665C81.7653 47.8337 81.4714 47.959 81.1387 48.041C80.806 48.123 80.4574 48.1641 80.0928 48.1641C79.3727 48.1641 78.7484 48.0251 78.2197 47.7471ZM93.4434 48H92.3223V46.9062H92.2949C91.8073 47.7448 91.0895 48.1641 90.1416 48.1641C89.4443 48.1641 88.8975 47.9795 88.501 47.6104C88.109 47.2412 87.9131 46.7513 87.9131 46.1406C87.9131 44.8327 88.6833 44.0716 90.2236 43.8574L92.3223 43.5635C92.3223 42.374 91.8415 41.7793 90.8799 41.7793C90.0368 41.7793 89.2757 42.0664 88.5967 42.6406V41.4922C89.2848 41.0547 90.0778 40.8359 90.9756 40.8359C92.6208 40.8359 93.4434 41.7064 93.4434 43.4473V48ZM92.3223 44.459L90.6338 44.6914C90.1143 44.7643 89.7223 44.8942 89.458 45.0811C89.1937 45.2633 89.0615 45.5892 89.0615 46.0586C89.0615 46.4004 89.1823 46.6807 89.4238 46.8994C89.6699 47.1136 89.9958 47.2207 90.4014 47.2207C90.9574 47.2207 91.4154 47.027 91.7754 46.6396C92.14 46.2477 92.3223 45.7533 92.3223 45.1562V44.459ZM101.366 48H100.245V44.0078C100.245 42.5221 99.7028 41.7793 98.6182 41.7793C98.0576 41.7793 97.5928 41.9912 97.2236 42.415C96.859 42.8343 96.6768 43.3652 96.6768 44.0078V48H95.5557V41H96.6768V42.1621H96.7041C97.2327 41.278 97.9984 40.8359 99.001 40.8359C99.7666 40.8359 100.352 41.0843 100.758 41.5811C101.163 42.0732 101.366 42.7865 101.366 43.7207V48ZM109.46 48H108.339V46.8105H108.312C107.792 47.7129 106.99 48.1641 105.905 48.1641C105.026 48.1641 104.322 47.8519 103.793 47.2275C103.269 46.5986 103.007 45.7441 103.007 44.6641C103.007 43.5065 103.299 42.5791 103.882 41.8818C104.465 41.1846 105.242 40.8359 106.213 40.8359C107.174 40.8359 107.874 41.2142 108.312 41.9707H108.339V37.6367H109.46V48ZM108.339 44.835V43.8027C108.339 43.2376 108.152 42.7591 107.778 42.3672C107.405 41.9753 106.931 41.7793 106.356 41.7793C105.673 41.7793 105.135 42.0299 104.743 42.5312C104.351 43.0326 104.155 43.7253 104.155 44.6094C104.155 45.416 104.342 46.054 104.716 46.5234C105.094 46.9883 105.6 47.2207 106.233 47.2207C106.858 47.2207 107.364 46.9951 107.751 46.5439C108.143 46.0928 108.339 45.5231 108.339 44.835ZM116.72 46.9883H116.692V51.2197H115.571V41H116.692V42.2305H116.72C117.271 41.3008 118.078 40.8359 119.14 40.8359C120.042 40.8359 120.746 41.1504 121.252 41.7793C121.758 42.4036 122.011 43.2422 122.011 44.2949C122.011 45.4661 121.726 46.4049 121.156 47.1113C120.587 47.8132 119.807 48.1641 118.818 48.1641C117.911 48.1641 117.212 47.7721 116.72 46.9883ZM116.692 44.165V45.1426C116.692 45.7214 116.879 46.2135 117.253 46.6191C117.631 47.0202 118.11 47.2207 118.688 47.2207C119.368 47.2207 119.898 46.9609 120.281 46.4414C120.669 45.9219 120.862 45.1995 120.862 44.2744C120.862 43.4951 120.682 42.8844 120.322 42.4424C119.962 42.0003 119.475 41.7793 118.859 41.7793C118.208 41.7793 117.684 42.0072 117.287 42.4629C116.891 42.9141 116.692 43.4814 116.692 44.165ZM126.728 48.1641C125.693 48.1641 124.866 47.8382 124.246 47.1865C123.631 46.5303 123.323 45.6621 123.323 44.582C123.323 43.4062 123.645 42.488 124.287 41.8271C124.93 41.1663 125.798 40.8359 126.892 40.8359C127.935 40.8359 128.749 41.1572 129.332 41.7998C129.92 42.4424 130.214 43.3333 130.214 44.4727C130.214 45.5892 129.897 46.4847 129.264 47.1592C128.635 47.8291 127.789 48.1641 126.728 48.1641ZM126.81 41.7793C126.09 41.7793 125.52 42.0254 125.101 42.5176C124.681 43.0052 124.472 43.6797 124.472 44.541C124.472 45.3704 124.684 46.0244 125.107 46.5029C125.531 46.9814 126.099 47.2207 126.81 47.2207C127.534 47.2207 128.09 46.986 128.478 46.5166C128.869 46.0472 129.065 45.3796 129.065 44.5137C129.065 43.6387 128.869 42.9642 128.478 42.4902C128.09 42.0163 127.534 41.7793 126.81 41.7793ZM137.979 48H136.858V46.8105H136.831C136.312 47.7129 135.509 48.1641 134.425 48.1641C133.545 48.1641 132.841 47.8519 132.312 47.2275C131.788 46.5986 131.526 45.7441 131.526 44.6641C131.526 43.5065 131.818 42.5791 132.401 41.8818C132.985 41.1846 133.762 40.8359 134.732 40.8359C135.694 40.8359 136.394 41.2142 136.831 41.9707H136.858V37.6367H137.979V48ZM136.858 44.835V43.8027C136.858 43.2376 136.672 42.7591 136.298 42.3672C135.924 41.9753 135.45 41.7793 134.876 41.7793C134.192 41.7793 133.655 42.0299 133.263 42.5312C132.871 43.0326 132.675 43.7253 132.675 44.6094C132.675 45.416 132.862 46.054 133.235 46.5234C133.614 46.9883 134.119 47.2207 134.753 47.2207C135.377 47.2207 135.883 46.9951 136.271 46.5439C136.662 46.0928 136.858 45.5231 136.858 44.835ZM145.021 47.6787C144.483 48.0023 143.845 48.1641 143.106 48.1641C142.108 48.1641 141.302 47.8405 140.687 47.1934C140.076 46.5417 139.771 45.6986 139.771 44.6641C139.771 43.5111 140.101 42.5859 140.762 41.8887C141.423 41.1868 142.304 40.8359 143.407 40.8359C144.022 40.8359 144.565 40.9499 145.034 41.1777V42.3262C144.515 41.9616 143.959 41.7793 143.366 41.7793C142.651 41.7793 142.063 42.0368 141.603 42.5518C141.147 43.0622 140.919 43.7344 140.919 44.5684C140.919 45.3887 141.133 46.0358 141.562 46.5098C141.994 46.9837 142.573 47.2207 143.298 47.2207C143.909 47.2207 144.483 47.0179 145.021 46.6123V47.6787ZM151.727 48H150.605V46.9062H150.578C150.09 47.7448 149.373 48.1641 148.425 48.1641C147.728 48.1641 147.181 47.9795 146.784 47.6104C146.392 47.2412 146.196 46.7513 146.196 46.1406C146.196 44.8327 146.966 44.0716 148.507 43.8574L150.605 43.5635C150.605 42.374 150.125 41.7793 149.163 41.7793C148.32 41.7793 147.559 42.0664 146.88 42.6406V41.4922C147.568 41.0547 148.361 40.8359 149.259 40.8359C150.904 40.8359 151.727 41.7064 151.727 43.4473V48ZM150.605 44.459L148.917 44.6914C148.397 44.7643 148.006 44.8942 147.741 45.0811C147.477 45.2633 147.345 45.5892 147.345 46.0586C147.345 46.4004 147.465 46.6807 147.707 46.8994C147.953 47.1136 148.279 47.2207 148.685 47.2207C149.241 47.2207 149.699 47.027 150.059 46.6396C150.423 46.2477 150.605 45.7533 150.605 45.1562V44.459ZM153.415 47.7471V46.5439C154.026 46.9951 154.698 47.2207 155.432 47.2207C156.416 47.2207 156.908 46.8926 156.908 46.2363C156.908 46.0495 156.865 45.8923 156.778 45.7646C156.696 45.6325 156.582 45.5163 156.437 45.416C156.295 45.3158 156.127 45.2269 155.931 45.1494C155.739 45.0674 155.532 44.9831 155.309 44.8965C154.999 44.7734 154.725 44.6504 154.488 44.5273C154.256 44.3997 154.06 44.2585 153.9 44.1035C153.745 43.944 153.627 43.764 153.545 43.5635C153.467 43.363 153.429 43.1283 153.429 42.8594C153.429 42.5312 153.504 42.2419 153.654 41.9912C153.805 41.736 154.005 41.5241 154.256 41.3555C154.507 41.1823 154.791 41.0524 155.11 40.9658C155.434 40.8792 155.767 40.8359 156.108 40.8359C156.715 40.8359 157.257 40.9408 157.735 41.1504V42.2852C157.22 41.9479 156.628 41.7793 155.958 41.7793C155.748 41.7793 155.559 41.8044 155.391 41.8545C155.222 41.9001 155.076 41.9661 154.953 42.0527C154.835 42.1393 154.741 42.2441 154.673 42.3672C154.609 42.4857 154.577 42.6178 154.577 42.7637C154.577 42.946 154.609 43.0986 154.673 43.2217C154.741 43.3447 154.839 43.4541 154.967 43.5498C155.094 43.6455 155.249 43.7321 155.432 43.8096C155.614 43.887 155.821 43.9714 156.054 44.0625C156.364 44.181 156.642 44.304 156.888 44.4316C157.134 44.5547 157.343 44.696 157.517 44.8555C157.69 45.0104 157.822 45.1904 157.913 45.3955C158.009 45.6006 158.057 45.8444 158.057 46.127C158.057 46.4733 157.979 46.7741 157.824 47.0293C157.674 47.2845 157.471 47.4964 157.216 47.665C156.961 47.8337 156.667 47.959 156.334 48.041C156.001 48.123 155.653 48.1641 155.288 48.1641C154.568 48.1641 153.944 48.0251 153.415 47.7471ZM163.033 47.9316C162.769 48.0775 162.42 48.1504 161.987 48.1504C160.761 48.1504 160.148 47.4668 160.148 46.0996V41.957H158.945V41H160.148V39.291L161.27 38.9287V41H163.033V41.957H161.27V45.9014C161.27 46.3708 161.349 46.7057 161.509 46.9062C161.668 47.1068 161.933 47.207 162.302 47.207C162.584 47.207 162.828 47.1296 163.033 46.9746V47.9316Z" fill="#060404"/>
</svg>
