<svg width="20" height="20" viewBox="0 0 20 20" fill="none" xmlns="http://www.w3.org/2000/svg">
<path d="M18.9809 10.8091C18.8236 12.5113 18.1848 14.1335 17.1392 15.4859C16.0935 16.8383 14.6844 17.8649 13.0766 18.4456C11.4688 19.0264 9.72889 19.1372 8.06041 18.7652C6.39192 18.3931 4.8639 17.5536 3.65513 16.3449C2.44636 15.1361 1.60684 13.6081 1.23481 11.9396C0.86278 10.2711 0.97362 8.53117 1.55436 6.92339C2.13511 5.3156 3.16173 3.90645 4.51412 2.86084C5.8665 1.81523 7.4887 1.17639 9.1909 1.01909C8.19432 2.36736 7.71475 4.02854 7.83944 5.7005C7.96412 7.37247 8.68477 8.94415 9.87031 10.1297C11.0558 11.3152 12.6275 12.0359 14.2995 12.1606C15.9715 12.2852 17.6326 11.8057 18.9809 10.8091Z" stroke="#6D1111" stroke-width="2" stroke-linecap="round" stroke-linejoin="round"/>
</svg>
