<svg width="171" height="58" viewBox="0 0 171 58" fill="none" xmlns="http://www.w3.org/2000/svg">
<path d="M23.4911 0.5L26.7465 10.5193L37.2814 10.5193L28.7585 16.7115L32.014 26.7307L23.4911 20.5385L14.9682 26.7307L18.2236 16.7115L9.70075 10.5193L20.2356 10.5193L23.4911 0.5Z" fill="#C61F1F"/>
<path d="M54.0938 24.75H50.4688C50.3854 24.75 50.3438 24.6979 50.3438 24.5938L50.4063 2.64062C50.4063 2.53646 50.4479 2.48438 50.5313 2.48438H54.125C54.2083 2.48438 54.25 2.53646 54.25 2.64062V10.2188L59.2656 2.60938C59.349 2.52604 59.4271 2.48438 59.5 2.48438H63.1719C63.2656 2.48438 63.2865 2.52604 63.2344 2.60938L57.7031 11.4375L63.9063 24.625C63.9583 24.7083 63.9063 24.75 63.75 24.75H59.8438C59.7396 24.75 59.6771 24.7083 59.6563 24.625L55.3281 15.2188L54.2188 16.9688V24.5938C54.2188 24.6979 54.1771 24.75 54.0938 24.75ZM70.6094 25.0625C69.474 25.0625 68.4271 24.7708 67.4688 24.1875C66.5208 23.6042 65.7552 22.8281 65.1719 21.8594C64.599 20.8802 64.3125 19.8073 64.3125 18.6406L64.3438 8.5C64.3438 7.3125 64.6302 6.24479 65.2031 5.29688C65.7656 4.33854 66.526 3.57292 67.4844 3C68.4427 2.41667 69.4844 2.125 70.6094 2.125C71.776 2.125 72.8229 2.41146 73.75 2.98438C74.6875 3.55729 75.4375 4.32812 76 5.29688C76.5729 6.25521 76.8594 7.32292 76.8594 8.5L76.8906 18.6406C76.8906 19.8073 76.6094 20.875 76.0469 21.8438C75.474 22.8229 74.7135 23.6042 73.7656 24.1875C72.8177 24.7708 71.7656 25.0625 70.6094 25.0625ZM70.6094 21.2031C71.2552 21.2031 71.8177 20.9427 72.2969 20.4219C72.776 19.8906 73.0156 19.2969 73.0156 18.6406L72.9844 8.5C72.9844 7.79167 72.7604 7.19271 72.3125 6.70312C71.8646 6.21354 71.2969 5.96875 70.6094 5.96875C69.9531 5.96875 69.3906 6.20833 68.9219 6.6875C68.4531 7.16667 68.2188 7.77083 68.2188 8.5V18.6406C68.2188 19.3385 68.4531 19.9427 68.9219 20.4531C69.3906 20.9531 69.9531 21.2031 70.6094 21.2031ZM91.375 24.75H87.75C87.6667 24.75 87.625 24.6979 87.625 24.5938L87.6875 2.60938C87.6875 2.52604 87.7292 2.48438 87.8125 2.48438H91.7188C91.8021 2.48438 91.875 2.52604 91.9375 2.60938L94.8594 6.82812L97.7656 2.60938C97.8281 2.52604 97.9063 2.48438 98 2.48438H101.922C102.016 2.48438 102.063 2.52604 102.063 2.60938L102.125 24.5938C102.125 24.6979 102.083 24.75 102 24.75H98.375C98.2917 24.75 98.25 24.6979 98.25 24.5938L98.2188 8.26562L94.8594 13.1406L91.5313 8.26562L91.5 24.5938C91.5 24.6979 91.4583 24.75 91.375 24.75ZM110.703 25.0625C109.578 25.0625 108.536 24.7708 107.578 24.1875C106.62 23.6042 105.854 22.8229 105.281 21.8438C104.719 20.8542 104.438 19.776 104.438 18.6094L104.5 2.60938C104.5 2.52604 104.542 2.48438 104.625 2.48438H108.219C108.302 2.48438 108.344 2.52604 108.344 2.60938V18.6094C108.344 19.3281 108.573 19.9427 109.031 20.4531C109.49 20.9531 110.047 21.2031 110.703 21.2031C111.391 21.2031 111.964 20.9531 112.422 20.4531C112.88 19.9427 113.109 19.3281 113.109 18.6094V2.60938C113.109 2.52604 113.151 2.48438 113.234 2.48438H116.828C116.911 2.48438 116.953 2.52604 116.953 2.60938L117.016 18.6094C117.016 19.7865 116.734 20.8698 116.172 21.8594C115.599 22.8385 114.839 23.6198 113.891 24.2031C112.943 24.776 111.88 25.0625 110.703 25.0625ZM124.969 25.0625C123.833 25.0625 122.786 24.7708 121.828 24.1875C120.88 23.6042 120.12 22.8281 119.547 21.8594C118.984 20.8802 118.703 19.8073 118.703 18.6406V17.1719C118.703 17.0573 118.755 17 118.859 17H122.453C122.536 17 122.578 17.0573 122.578 17.1719V18.6406C122.578 19.3385 122.812 19.9427 123.281 20.4531C123.75 20.9531 124.312 21.2031 124.969 21.2031C125.635 21.2031 126.203 20.9479 126.672 20.4375C127.141 19.9167 127.375 19.3177 127.375 18.6406C127.375 17.8594 126.865 17.1771 125.844 16.5938C125.677 16.4896 125.458 16.3646 125.188 16.2188C124.927 16.0625 124.615 15.8854 124.25 15.6875C123.885 15.4896 123.531 15.2969 123.188 15.1094C122.844 14.9115 122.51 14.724 122.188 14.5469C121.021 13.8594 120.151 13 119.578 11.9688C119.016 10.9271 118.734 9.76042 118.734 8.46875C118.734 7.28125 119.026 6.20833 119.609 5.25C120.193 4.30208 120.953 3.55208 121.891 3C122.839 2.4375 123.865 2.15625 124.969 2.15625C126.104 2.15625 127.146 2.4375 128.094 3C129.042 3.57292 129.797 4.33333 130.359 5.28125C130.932 6.22917 131.219 7.29167 131.219 8.46875V11.0938C131.219 11.1771 131.177 11.2188 131.094 11.2188H127.5C127.417 11.2188 127.375 11.1771 127.375 11.0938L127.344 8.46875C127.344 7.71875 127.109 7.10938 126.641 6.64062C126.172 6.17188 125.615 5.9375 124.969 5.9375C124.312 5.9375 123.75 6.1875 123.281 6.6875C122.812 7.1875 122.578 7.78125 122.578 8.46875C122.578 9.16667 122.724 9.75 123.016 10.2188C123.318 10.6875 123.865 11.1354 124.656 11.5625C124.74 11.6042 124.932 11.7083 125.234 11.875C125.536 12.0417 125.87 12.2292 126.234 12.4375C126.609 12.6354 126.948 12.8177 127.25 12.9844C127.552 13.1406 127.734 13.2344 127.797 13.2656C128.859 13.8594 129.698 14.5885 130.312 15.4531C130.938 16.3177 131.25 17.3802 131.25 18.6406C131.25 19.8594 130.969 20.9531 130.406 21.9219C129.833 22.8906 129.073 23.6562 128.125 24.2188C127.177 24.7812 126.125 25.0625 124.969 25.0625ZM137.25 24.75H133.625C133.521 24.75 133.469 24.6979 133.469 24.5938L133.5 2.60938C133.5 2.52604 133.542 2.48438 133.625 2.48438H137.219C137.302 2.48438 137.344 2.52604 137.344 2.60938L137.375 24.5938C137.375 24.6979 137.333 24.75 137.25 24.75ZM146.078 25.0625C144.922 25.0625 143.865 24.7708 142.906 24.1875C141.958 23.6042 141.203 22.8229 140.641 21.8438C140.089 20.8542 139.812 19.7552 139.812 18.5469L139.844 8.5625C139.844 7.375 140.115 6.30208 140.656 5.34375C141.198 4.375 141.943 3.59896 142.891 3.01562C143.849 2.42188 144.911 2.125 146.078 2.125C147.266 2.125 148.323 2.41146 149.25 2.98438C150.188 3.55729 150.932 4.33333 151.484 5.3125C152.047 6.28125 152.328 7.36458 152.328 8.5625V10.0312C152.328 10.1146 152.286 10.1562 152.203 10.1562H148.609C148.526 10.1562 148.484 10.1146 148.484 10.0312V8.5625C148.484 7.85417 148.255 7.24479 147.797 6.73438C147.339 6.22396 146.766 5.96875 146.078 5.96875C145.318 5.96875 144.734 6.22917 144.328 6.75C143.922 7.27083 143.719 7.875 143.719 8.5625V18.5469C143.719 19.3281 143.948 19.9688 144.406 20.4688C144.865 20.9583 145.422 21.2031 146.078 21.2031C146.766 21.2031 147.339 20.9323 147.797 20.3906C148.255 19.8385 148.484 19.224 148.484 18.5469V17.0625C148.484 16.9792 148.526 16.9375 148.609 16.9375H152.234C152.318 16.9375 152.359 16.9792 152.359 17.0625V18.5469C152.359 19.7448 152.078 20.8385 151.516 21.8281C150.943 22.8073 150.188 23.5938 149.25 24.1875C148.312 24.7708 147.255 25.0625 146.078 25.0625ZM158.438 24.75H154.812C154.729 24.75 154.688 24.7083 154.688 24.625V21C154.688 20.9167 154.729 20.875 154.812 20.875H158.438C158.521 20.875 158.562 20.9167 158.562 21V24.625C158.562 24.7083 158.521 24.75 158.438 24.75Z" fill="#F2EDED"/>
<path d="M8.43164 48.1035V46.75C8.58659 46.8867 8.77116 47.0098 8.98535 47.1191C9.2041 47.2285 9.43197 47.3219 9.66895 47.3994C9.91048 47.4723 10.152 47.5293 10.3936 47.5703C10.6351 47.6113 10.8584 47.6318 11.0635 47.6318C11.7699 47.6318 12.2962 47.502 12.6426 47.2422C12.9935 46.9779 13.1689 46.5996 13.1689 46.1074C13.1689 45.8431 13.1097 45.613 12.9912 45.417C12.8773 45.221 12.7178 45.0433 12.5127 44.8838C12.3076 44.7197 12.0638 44.5648 11.7812 44.4189C11.5033 44.2686 11.2025 44.1113 10.8789 43.9473C10.5371 43.7741 10.2181 43.5986 9.92188 43.4209C9.62565 43.2432 9.36816 43.0472 9.14941 42.833C8.93066 42.6188 8.75749 42.3773 8.62988 42.1084C8.50684 41.835 8.44531 41.516 8.44531 41.1514C8.44531 40.7048 8.54329 40.3174 8.73926 39.9893C8.93522 39.6566 9.19271 39.3831 9.51172 39.1689C9.83073 38.9548 10.193 38.7952 10.5986 38.6904C11.0088 38.5856 11.4258 38.5332 11.8496 38.5332C12.8158 38.5332 13.5199 38.6494 13.9619 38.8818V40.1738C13.3831 39.7728 12.6403 39.5723 11.7334 39.5723C11.4827 39.5723 11.2321 39.5996 10.9814 39.6543C10.7308 39.7044 10.5075 39.7887 10.3115 39.9072C10.1156 40.0257 9.95605 40.1784 9.83301 40.3652C9.70996 40.5521 9.64844 40.7799 9.64844 41.0488C9.64844 41.2995 9.69401 41.516 9.78516 41.6982C9.88086 41.8805 10.0199 42.0469 10.2021 42.1973C10.3844 42.3477 10.6055 42.4935 10.8652 42.6348C11.1296 42.776 11.4326 42.931 11.7744 43.0996C12.1253 43.2728 12.458 43.4551 12.7725 43.6465C13.0869 43.8379 13.3626 44.0498 13.5996 44.2822C13.8366 44.5146 14.0234 44.7721 14.1602 45.0547C14.3014 45.3372 14.3721 45.6608 14.3721 46.0254C14.3721 46.5085 14.2764 46.9186 14.085 47.2559C13.8981 47.5885 13.6429 47.8597 13.3193 48.0693C13.0003 48.279 12.6312 48.4294 12.2119 48.5205C11.7926 48.6162 11.3506 48.6641 10.8857 48.6641C10.7308 48.6641 10.5394 48.6504 10.3115 48.623C10.0837 48.6003 9.85124 48.5638 9.61426 48.5137C9.37728 48.4681 9.15169 48.4111 8.9375 48.3428C8.72786 48.2699 8.55924 48.1901 8.43164 48.1035ZM19.1025 48.6641C18.068 48.6641 17.2409 48.3382 16.6211 47.6865C16.0059 47.0303 15.6982 46.1621 15.6982 45.082C15.6982 43.9062 16.0195 42.988 16.6621 42.3271C17.3047 41.6663 18.1729 41.3359 19.2666 41.3359C20.3102 41.3359 21.1237 41.6572 21.707 42.2998C22.2949 42.9424 22.5889 43.8333 22.5889 44.9727C22.5889 46.0892 22.2721 46.9847 21.6387 47.6592C21.0098 48.3291 20.1644 48.6641 19.1025 48.6641ZM19.1846 42.2793C18.4645 42.2793 17.8949 42.5254 17.4756 43.0176C17.0563 43.5052 16.8467 44.1797 16.8467 45.041C16.8467 45.8704 17.0586 46.5244 17.4824 47.0029C17.9062 47.4814 18.4736 47.7207 19.1846 47.7207C19.9092 47.7207 20.4652 47.486 20.8525 47.0166C21.2445 46.5472 21.4404 45.8796 21.4404 45.0137C21.4404 44.1387 21.2445 43.4642 20.8525 42.9902C20.4652 42.5163 19.9092 42.2793 19.1846 42.2793ZM30.04 48.5H28.9189V47.3926H28.8916C28.4268 48.2402 27.7067 48.6641 26.7314 48.6641C25.0635 48.6641 24.2295 47.6706 24.2295 45.6836V41.5H25.3438V45.5059C25.3438 46.9824 25.9089 47.7207 27.0391 47.7207C27.5859 47.7207 28.0348 47.5202 28.3857 47.1191C28.7412 46.7135 28.9189 46.1849 28.9189 45.5332V41.5H30.04V48.5ZM38.1201 48.5H36.999V44.5078C36.999 43.0221 36.4567 42.2793 35.3721 42.2793C34.8115 42.2793 34.3467 42.4912 33.9775 42.915C33.613 43.3343 33.4307 43.8652 33.4307 44.5078V48.5H32.3096V41.5H33.4307V42.6621H33.458C33.9867 41.778 34.7523 41.3359 35.7549 41.3359C36.5205 41.3359 37.1061 41.5843 37.5117 42.0811C37.9173 42.5732 38.1201 43.2865 38.1201 44.2207V48.5ZM46.2139 48.5H45.0928V47.3105H45.0654C44.5459 48.2129 43.7438 48.6641 42.6592 48.6641C41.7796 48.6641 41.0755 48.3519 40.5469 47.7275C40.0228 47.0986 39.7607 46.2441 39.7607 45.1641C39.7607 44.0065 40.0524 43.0791 40.6357 42.3818C41.2191 41.6846 41.9961 41.3359 42.9668 41.3359C43.9284 41.3359 44.6279 41.7142 45.0654 42.4707H45.0928V38.1367H46.2139V48.5ZM45.0928 45.335V44.3027C45.0928 43.7376 44.9059 43.2591 44.5322 42.8672C44.1585 42.4753 43.6846 42.2793 43.1104 42.2793C42.4268 42.2793 41.889 42.5299 41.4971 43.0312C41.1051 43.5326 40.9092 44.2253 40.9092 45.1094C40.9092 45.916 41.096 46.554 41.4697 47.0234C41.848 47.4883 42.3538 47.7207 42.9873 47.7207C43.6117 47.7207 44.1175 47.4951 44.5049 47.0439C44.8968 46.5928 45.0928 46.0231 45.0928 45.335ZM51.7305 48.4316C51.4661 48.5775 51.1175 48.6504 50.6846 48.6504C49.4587 48.6504 48.8457 47.9668 48.8457 46.5996V42.457H47.6426V41.5H48.8457V39.791L49.9668 39.4287V41.5H51.7305V42.457H49.9668V46.4014C49.9668 46.8708 50.0465 47.2057 50.2061 47.4062C50.3656 47.6068 50.6299 47.707 50.999 47.707C51.2816 47.707 51.5254 47.6296 51.7305 47.4746V48.4316ZM56.8779 42.6348C56.682 42.4844 56.3994 42.4092 56.0303 42.4092C55.5518 42.4092 55.1507 42.6348 54.8271 43.0859C54.5081 43.5371 54.3486 44.1523 54.3486 44.9316V48.5H53.2275V41.5H54.3486V42.9424H54.376C54.5355 42.4502 54.7793 42.0674 55.1074 41.7939C55.4355 41.516 55.8024 41.377 56.208 41.377C56.4997 41.377 56.723 41.4089 56.8779 41.4727V42.6348ZM63.1055 48.5H61.9844V47.4062H61.957C61.4694 48.2448 60.7516 48.6641 59.8037 48.6641C59.1064 48.6641 58.5596 48.4795 58.1631 48.1104C57.7712 47.7412 57.5752 47.2513 57.5752 46.6406C57.5752 45.3327 58.3454 44.5716 59.8857 44.3574L61.9844 44.0635C61.9844 42.874 61.5036 42.2793 60.542 42.2793C59.6989 42.2793 58.9378 42.5664 58.2588 43.1406V41.9922C58.9469 41.5547 59.7399 41.3359 60.6377 41.3359C62.2829 41.3359 63.1055 42.2064 63.1055 43.9473V48.5ZM61.9844 44.959L60.2959 45.1914C59.7764 45.2643 59.3844 45.3942 59.1201 45.5811C58.8558 45.7633 58.7236 46.0892 58.7236 46.5586C58.7236 46.9004 58.8444 47.1807 59.0859 47.3994C59.332 47.6136 59.6579 47.7207 60.0635 47.7207C60.6195 47.7207 61.0775 47.527 61.4375 47.1396C61.8021 46.7477 61.9844 46.2533 61.9844 45.6562V44.959ZM69.9893 48.1787C69.4515 48.5023 68.8135 48.6641 68.0752 48.6641C67.0771 48.6641 66.2705 48.3405 65.6553 47.6934C65.0446 47.0417 64.7393 46.1986 64.7393 45.1641C64.7393 44.0111 65.0697 43.0859 65.7305 42.3887C66.3913 41.6868 67.2731 41.3359 68.376 41.3359C68.9912 41.3359 69.5335 41.4499 70.0029 41.6777V42.8262C69.4834 42.4616 68.9274 42.2793 68.335 42.2793C67.6195 42.2793 67.0316 42.5368 66.5713 43.0518C66.1156 43.5622 65.8877 44.2344 65.8877 45.0684C65.8877 45.8887 66.1019 46.5358 66.5303 47.0098C66.9632 47.4837 67.542 47.7207 68.2666 47.7207C68.8773 47.7207 69.4515 47.5179 69.9893 47.1123V48.1787ZM77.4951 48.5H75.9229L72.833 45.1367H72.8057V48.5H71.6846V38.1367H72.8057V44.7061H72.833L75.7725 41.5H77.2422L73.9951 44.877L77.4951 48.5ZM78.2197 48.2471V47.0439C78.8304 47.4951 79.5026 47.7207 80.2363 47.7207C81.2207 47.7207 81.7129 47.3926 81.7129 46.7363C81.7129 46.5495 81.6696 46.3923 81.583 46.2646C81.501 46.1325 81.387 46.0163 81.2412 45.916C81.0999 45.8158 80.9313 45.7269 80.7354 45.6494C80.5439 45.5674 80.3366 45.4831 80.1133 45.3965C79.8034 45.2734 79.5299 45.1504 79.293 45.0273C79.0605 44.8997 78.8646 44.7585 78.7051 44.6035C78.5501 44.444 78.4316 44.264 78.3496 44.0635C78.2721 43.863 78.2334 43.6283 78.2334 43.3594C78.2334 43.0312 78.3086 42.7419 78.459 42.4912C78.6094 42.236 78.8099 42.0241 79.0605 41.8555C79.3112 41.6823 79.596 41.5524 79.915 41.4658C80.2386 41.3792 80.5713 41.3359 80.9131 41.3359C81.5192 41.3359 82.0615 41.4408 82.54 41.6504V42.7852C82.0251 42.4479 81.4326 42.2793 80.7627 42.2793C80.5531 42.2793 80.3639 42.3044 80.1953 42.3545C80.0267 42.4001 79.8809 42.4661 79.7578 42.5527C79.6393 42.6393 79.5459 42.7441 79.4775 42.8672C79.4137 42.9857 79.3818 43.1178 79.3818 43.2637C79.3818 43.446 79.4137 43.5986 79.4775 43.7217C79.5459 43.8447 79.6439 43.9541 79.7715 44.0498C79.8991 44.1455 80.054 44.2321 80.2363 44.3096C80.4186 44.387 80.626 44.4714 80.8584 44.5625C81.1683 44.681 81.4463 44.804 81.6924 44.9316C81.9385 45.0547 82.1481 45.196 82.3213 45.3555C82.4945 45.5104 82.6266 45.6904 82.7178 45.8955C82.8135 46.1006 82.8613 46.3444 82.8613 46.627C82.8613 46.9733 82.7839 47.2741 82.6289 47.5293C82.4785 47.7845 82.2757 47.9964 82.0205 48.165C81.7653 48.3337 81.4714 48.459 81.1387 48.541C80.806 48.623 80.4574 48.6641 80.0928 48.6641C79.3727 48.6641 78.7484 48.5251 78.2197 48.2471ZM93.4434 48.5H92.3223V47.4062H92.2949C91.8073 48.2448 91.0895 48.6641 90.1416 48.6641C89.4443 48.6641 88.8975 48.4795 88.501 48.1104C88.109 47.7412 87.9131 47.2513 87.9131 46.6406C87.9131 45.3327 88.6833 44.5716 90.2236 44.3574L92.3223 44.0635C92.3223 42.874 91.8415 42.2793 90.8799 42.2793C90.0368 42.2793 89.2757 42.5664 88.5967 43.1406V41.9922C89.2848 41.5547 90.0778 41.3359 90.9756 41.3359C92.6208 41.3359 93.4434 42.2064 93.4434 43.9473V48.5ZM92.3223 44.959L90.6338 45.1914C90.1143 45.2643 89.7223 45.3942 89.458 45.5811C89.1937 45.7633 89.0615 46.0892 89.0615 46.5586C89.0615 46.9004 89.1823 47.1807 89.4238 47.3994C89.6699 47.6136 89.9958 47.7207 90.4014 47.7207C90.9574 47.7207 91.4154 47.527 91.7754 47.1396C92.14 46.7477 92.3223 46.2533 92.3223 45.6562V44.959ZM101.366 48.5H100.245V44.5078C100.245 43.0221 99.7028 42.2793 98.6182 42.2793C98.0576 42.2793 97.5928 42.4912 97.2236 42.915C96.859 43.3343 96.6768 43.8652 96.6768 44.5078V48.5H95.5557V41.5H96.6768V42.6621H96.7041C97.2327 41.778 97.9984 41.3359 99.001 41.3359C99.7666 41.3359 100.352 41.5843 100.758 42.0811C101.163 42.5732 101.366 43.2865 101.366 44.2207V48.5ZM109.46 48.5H108.339V47.3105H108.312C107.792 48.2129 106.99 48.6641 105.905 48.6641C105.026 48.6641 104.322 48.3519 103.793 47.7275C103.269 47.0986 103.007 46.2441 103.007 45.1641C103.007 44.0065 103.299 43.0791 103.882 42.3818C104.465 41.6846 105.242 41.3359 106.213 41.3359C107.174 41.3359 107.874 41.7142 108.312 42.4707H108.339V38.1367H109.46V48.5ZM108.339 45.335V44.3027C108.339 43.7376 108.152 43.2591 107.778 42.8672C107.405 42.4753 106.931 42.2793 106.356 42.2793C105.673 42.2793 105.135 42.5299 104.743 43.0312C104.351 43.5326 104.155 44.2253 104.155 45.1094C104.155 45.916 104.342 46.554 104.716 47.0234C105.094 47.4883 105.6 47.7207 106.233 47.7207C106.858 47.7207 107.364 47.4951 107.751 47.0439C108.143 46.5928 108.339 46.0231 108.339 45.335ZM116.72 47.4883H116.692V51.7197H115.571V41.5H116.692V42.7305H116.72C117.271 41.8008 118.078 41.3359 119.14 41.3359C120.042 41.3359 120.746 41.6504 121.252 42.2793C121.758 42.9036 122.011 43.7422 122.011 44.7949C122.011 45.9661 121.726 46.9049 121.156 47.6113C120.587 48.3132 119.807 48.6641 118.818 48.6641C117.911 48.6641 117.212 48.2721 116.72 47.4883ZM116.692 44.665V45.6426C116.692 46.2214 116.879 46.7135 117.253 47.1191C117.631 47.5202 118.11 47.7207 118.688 47.7207C119.368 47.7207 119.898 47.4609 120.281 46.9414C120.669 46.4219 120.862 45.6995 120.862 44.7744C120.862 43.9951 120.682 43.3844 120.322 42.9424C119.962 42.5003 119.475 42.2793 118.859 42.2793C118.208 42.2793 117.684 42.5072 117.287 42.9629C116.891 43.4141 116.692 43.9814 116.692 44.665ZM126.728 48.6641C125.693 48.6641 124.866 48.3382 124.246 47.6865C123.631 47.0303 123.323 46.1621 123.323 45.082C123.323 43.9062 123.645 42.988 124.287 42.3271C124.93 41.6663 125.798 41.3359 126.892 41.3359C127.935 41.3359 128.749 41.6572 129.332 42.2998C129.92 42.9424 130.214 43.8333 130.214 44.9727C130.214 46.0892 129.897 46.9847 129.264 47.6592C128.635 48.3291 127.789 48.6641 126.728 48.6641ZM126.81 42.2793C126.09 42.2793 125.52 42.5254 125.101 43.0176C124.681 43.5052 124.472 44.1797 124.472 45.041C124.472 45.8704 124.684 46.5244 125.107 47.0029C125.531 47.4814 126.099 47.7207 126.81 47.7207C127.534 47.7207 128.09 47.486 128.478 47.0166C128.869 46.5472 129.065 45.8796 129.065 45.0137C129.065 44.1387 128.869 43.4642 128.478 42.9902C128.09 42.5163 127.534 42.2793 126.81 42.2793ZM137.979 48.5H136.858V47.3105H136.831C136.312 48.2129 135.509 48.6641 134.425 48.6641C133.545 48.6641 132.841 48.3519 132.312 47.7275C131.788 47.0986 131.526 46.2441 131.526 45.1641C131.526 44.0065 131.818 43.0791 132.401 42.3818C132.985 41.6846 133.762 41.3359 134.732 41.3359C135.694 41.3359 136.394 41.7142 136.831 42.4707H136.858V38.1367H137.979V48.5ZM136.858 45.335V44.3027C136.858 43.7376 136.672 43.2591 136.298 42.8672C135.924 42.4753 135.45 42.2793 134.876 42.2793C134.192 42.2793 133.655 42.5299 133.263 43.0312C132.871 43.5326 132.675 44.2253 132.675 45.1094C132.675 45.916 132.862 46.554 133.235 47.0234C133.614 47.4883 134.119 47.7207 134.753 47.7207C135.377 47.7207 135.883 47.4951 136.271 47.0439C136.662 46.5928 136.858 46.0231 136.858 45.335ZM145.021 48.1787C144.483 48.5023 143.845 48.6641 143.106 48.6641C142.108 48.6641 141.302 48.3405 140.687 47.6934C140.076 47.0417 139.771 46.1986 139.771 45.1641C139.771 44.0111 140.101 43.0859 140.762 42.3887C141.423 41.6868 142.304 41.3359 143.407 41.3359C144.022 41.3359 144.565 41.4499 145.034 41.6777V42.8262C144.515 42.4616 143.959 42.2793 143.366 42.2793C142.651 42.2793 142.063 42.5368 141.603 43.0518C141.147 43.5622 140.919 44.2344 140.919 45.0684C140.919 45.8887 141.133 46.5358 141.562 47.0098C141.994 47.4837 142.573 47.7207 143.298 47.7207C143.909 47.7207 144.483 47.5179 145.021 47.1123V48.1787ZM151.727 48.5H150.605V47.4062H150.578C150.09 48.2448 149.373 48.6641 148.425 48.6641C147.728 48.6641 147.181 48.4795 146.784 48.1104C146.392 47.7412 146.196 47.2513 146.196 46.6406C146.196 45.3327 146.966 44.5716 148.507 44.3574L150.605 44.0635C150.605 42.874 150.125 42.2793 149.163 42.2793C148.32 42.2793 147.559 42.5664 146.88 43.1406V41.9922C147.568 41.5547 148.361 41.3359 149.259 41.3359C150.904 41.3359 151.727 42.2064 151.727 43.9473V48.5ZM150.605 44.959L148.917 45.1914C148.397 45.2643 148.006 45.3942 147.741 45.5811C147.477 45.7633 147.345 46.0892 147.345 46.5586C147.345 46.9004 147.465 47.1807 147.707 47.3994C147.953 47.6136 148.279 47.7207 148.685 47.7207C149.241 47.7207 149.699 47.527 150.059 47.1396C150.423 46.7477 150.605 46.2533 150.605 45.6562V44.959ZM153.415 48.2471V47.0439C154.026 47.4951 154.698 47.7207 155.432 47.7207C156.416 47.7207 156.908 47.3926 156.908 46.7363C156.908 46.5495 156.865 46.3923 156.778 46.2646C156.696 46.1325 156.582 46.0163 156.437 45.916C156.295 45.8158 156.127 45.7269 155.931 45.6494C155.739 45.5674 155.532 45.4831 155.309 45.3965C154.999 45.2734 154.725 45.1504 154.488 45.0273C154.256 44.8997 154.06 44.7585 153.9 44.6035C153.745 44.444 153.627 44.264 153.545 44.0635C153.467 43.863 153.429 43.6283 153.429 43.3594C153.429 43.0312 153.504 42.7419 153.654 42.4912C153.805 42.236 154.005 42.0241 154.256 41.8555C154.507 41.6823 154.791 41.5524 155.11 41.4658C155.434 41.3792 155.767 41.3359 156.108 41.3359C156.715 41.3359 157.257 41.4408 157.735 41.6504V42.7852C157.22 42.4479 156.628 42.2793 155.958 42.2793C155.748 42.2793 155.559 42.3044 155.391 42.3545C155.222 42.4001 155.076 42.4661 154.953 42.5527C154.835 42.6393 154.741 42.7441 154.673 42.8672C154.609 42.9857 154.577 43.1178 154.577 43.2637C154.577 43.446 154.609 43.5986 154.673 43.7217C154.741 43.8447 154.839 43.9541 154.967 44.0498C155.094 44.1455 155.249 44.2321 155.432 44.3096C155.614 44.387 155.821 44.4714 156.054 44.5625C156.364 44.681 156.642 44.804 156.888 44.9316C157.134 45.0547 157.343 45.196 157.517 45.3555C157.69 45.5104 157.822 45.6904 157.913 45.8955C158.009 46.1006 158.057 46.3444 158.057 46.627C158.057 46.9733 157.979 47.2741 157.824 47.5293C157.674 47.7845 157.471 47.9964 157.216 48.165C156.961 48.3337 156.667 48.459 156.334 48.541C156.001 48.623 155.653 48.6641 155.288 48.6641C154.568 48.6641 153.944 48.5251 153.415 48.2471ZM163.033 48.4316C162.769 48.5775 162.42 48.6504 161.987 48.6504C160.761 48.6504 160.148 47.9668 160.148 46.5996V42.457H158.945V41.5H160.148V39.791L161.27 39.4287V41.5H163.033V42.457H161.27V46.4014C161.27 46.8708 161.349 47.2057 161.509 47.4062C161.668 47.6068 161.933 47.707 162.302 47.707C162.584 47.707 162.828 47.6296 163.033 47.4746V48.4316Z" fill="#F2EDED"/>
</svg>
