<svg width="32" height="30" viewBox="0 0 32 30" fill="none" xmlns="http://www.w3.org/2000/svg">
<g filter="url(#filter0_di_20_193)">
<path d="M16 17C18.7614 17 21 14.7614 21 12C21 9.23858 18.7614 7 16 7C13.2386 7 11 9.23858 11 12C11 14.7614 13.2386 17 16 17Z" stroke="#C61F1F" stroke-width="2" stroke-linecap="round" stroke-linejoin="round"/>
<path d="M16 1V3" stroke="#C61F1F" stroke-width="2" stroke-linecap="round" stroke-linejoin="round"/>
<path d="M16 21V23" stroke="#C61F1F" stroke-width="2" stroke-linecap="round" stroke-linejoin="round"/>
<path d="M8.22 4.22L9.64 5.64" stroke="#C61F1F" stroke-width="2" stroke-linecap="round" stroke-linejoin="round"/>
<path d="M22.36 18.36L23.78 19.78" stroke="#C61F1F" stroke-width="2" stroke-linecap="round" stroke-linejoin="round"/>
<path d="M5 12H7" stroke="#C61F1F" stroke-width="2" stroke-linecap="round" stroke-linejoin="round"/>
<path d="M25 12H27" stroke="#C61F1F" stroke-width="2" stroke-linecap="round" stroke-linejoin="round"/>
<path d="M8.22 19.78L9.64 18.36" stroke="#C61F1F" stroke-width="2" stroke-linecap="round" stroke-linejoin="round"/>
<path d="M22.36 5.64L23.78 4.22" stroke="#C61F1F" stroke-width="2" stroke-linecap="round" stroke-linejoin="round"/>
</g>
<defs>
<filter id="filter0_di_20_193" x="0" y="0" width="32" height="32" filterUnits="userSpaceOnUse" color-interpolation-filters="sRGB">
<feFlood flood-opacity="0" result="BackgroundImageFix"/>
<feColorMatrix in="SourceAlpha" type="matrix" values="0 0 0 0 0 0 0 0 0 0 0 0 0 0 0 0 0 0 127 0" result="hardAlpha"/>
<feOffset dy="4"/>
<feGaussianBlur stdDeviation="2"/>
<feComposite in2="hardAlpha" operator="out"/>
<feColorMatrix type="matrix" values="0 0 0 0 0.776471 0 0 0 0 0.121569 0 0 0 0 0.121569 0 0 0 0.15 0"/>
<feBlend mode="normal" in2="BackgroundImageFix" result="effect1_dropShadow_20_193"/>
<feBlend mode="normal" in="SourceGraphic" in2="effect1_dropShadow_20_193" result="shape"/>
<feColorMatrix in="SourceAlpha" type="matrix" values="0 0 0 0 0 0 0 0 0 0 0 0 0 0 0 0 0 0 127 0" result="hardAlpha"/>
<feOffset dx="4" dy="4"/>
<feGaussianBlur stdDeviation="2"/>
<feComposite in2="hardAlpha" operator="arithmetic" k2="-1" k3="1"/>
<feColorMatrix type="matrix" values="0 0 0 0 0.776471 0 0 0 0 0.121569 0 0 0 0 0.121569 0 0 0 0.1 0"/>
<feBlend mode="normal" in2="shape" result="effect2_innerShadow_20_193"/>
</filter>
</defs>
</svg>
